<svg width="497" height="99" viewBox="0 0 497 99" fill="none" xmlns="http://www.w3.org/2000/svg">
<path d="M189.097 75.4948C181.839 75.4948 175.769 73.1196 170.887 68.3691C166.004 63.5526 163.563 57.5814 163.563 50.4557C163.563 43.3299 166.004 37.3918 170.887 32.6412C175.769 27.8247 181.839 25.4165 189.097 25.4165C196.355 25.4165 202.425 27.8247 207.307 32.6412C212.19 37.3918 214.631 43.3299 214.631 50.4557C214.631 55.8 213.179 60.5835 210.276 64.8062C207.373 68.9629 203.48 71.9649 198.598 73.8124C200.181 75.9237 202.161 76.9794 204.536 76.9794C206.318 76.9794 208.033 76.4845 209.682 75.4948C211.398 74.5711 212.685 73.3835 213.542 71.932L218.194 78.3649C214.103 82.6536 209.518 84.7979 204.437 84.7979C201.402 84.7979 198.532 83.9402 195.827 82.2247C193.122 80.5093 191.241 78.233 190.186 75.3959L189.097 75.4948ZM189.097 32.8392C184.28 32.8392 180.223 34.5546 176.924 37.9856C173.625 41.4165 171.975 45.5732 171.975 50.4557C171.975 55.3381 173.625 59.4948 176.924 62.9258C180.223 66.2907 184.28 67.9732 189.097 67.9732C193.913 67.9732 197.971 66.2907 201.27 62.9258C204.569 59.4948 206.219 55.3381 206.219 50.4557C206.219 45.5732 204.569 41.4165 201.27 37.9856C197.971 34.5546 193.913 32.8392 189.097 32.8392ZM249.592 38.1835H257.411V75H249.592V68.2701C248.338 70.5134 246.59 72.2948 244.347 73.6144C242.169 74.934 239.827 75.5938 237.32 75.5938C233.097 75.5938 229.732 74.3072 227.225 71.734C224.718 69.1608 223.464 65.499 223.464 60.7485V38.1835H231.184V58.3732C231.184 65.1691 233.988 68.567 239.596 68.567C242.433 68.567 244.808 67.6433 246.722 65.7959C248.635 63.9485 249.592 61.3753 249.592 58.0763V38.1835ZM302.822 59.9567H273.923C274.121 62.5959 275.342 64.7402 277.585 66.3897C279.828 68.0392 282.434 68.8639 285.403 68.8639C290.088 68.8639 293.585 67.4124 295.894 64.5093L300.348 69.3588C296.389 73.5155 291.21 75.5938 284.81 75.5938C279.531 75.5938 275.111 73.8454 271.548 70.3485C267.985 66.8515 266.203 62.233 266.203 56.4928C266.203 50.8845 268.018 46.332 271.647 42.835C275.276 39.3381 279.663 37.5897 284.81 37.5897C289.956 37.5897 294.245 39.1402 297.676 42.2412C301.107 45.3423 302.822 49.466 302.822 54.6124V59.9567ZM295.102 53.8206C295.102 50.8515 294.146 48.5093 292.232 46.7938C290.385 45.0783 287.977 44.2206 285.008 44.2206C282.039 44.2206 279.432 45.1113 277.189 46.8928C275.012 48.6742 273.923 50.9835 273.923 53.8206H295.102ZM324.091 75.5938C318.152 75.5938 312.808 73.7464 308.058 70.0515L311.818 64.0144C316.041 67.2474 320.198 68.8639 324.288 68.8639C326.004 68.8639 327.357 68.468 328.346 67.6763C329.402 66.8186 329.93 65.7629 329.93 64.5093C329.93 62.6619 327.488 61.0124 322.606 59.5608C322.474 59.4948 322.309 59.4289 322.111 59.3629C321.979 59.2969 321.88 59.2639 321.814 59.2639C314.161 57.2186 310.334 53.7546 310.334 48.8722C310.334 45.4412 311.62 42.7031 314.194 40.6577C316.833 38.6124 320.297 37.5897 324.585 37.5897C328.808 37.5897 332.833 38.8433 336.66 41.3505L333.789 47.0907C330.82 45.1113 327.554 44.1216 323.992 44.1216C319.835 44.1216 317.757 45.4412 317.757 48.0804C317.757 49.2021 318.152 50.0268 318.944 50.5546C319.802 51.0165 321.187 51.4783 323.101 51.9402C326.004 52.732 328.445 53.5237 330.425 54.3155C331.744 54.9093 332.899 55.5361 333.888 56.1959C336.396 57.9113 337.649 60.5175 337.649 64.0144C337.649 67.4454 336.363 70.2495 333.789 72.4268C331.282 74.5381 328.049 75.5938 324.091 75.5938ZM384.192 56.3938C384.192 61.9361 382.477 66.5216 379.046 70.1505C375.615 73.7794 371.524 75.5938 366.774 75.5938C362.089 75.5938 357.899 73.5485 354.205 69.4577V88.4598H346.485V38.1835H354.205V44.6165C357.306 39.932 361.297 37.5897 366.18 37.5897C371.26 37.5897 375.516 39.3381 378.947 42.835C382.444 46.332 384.192 50.8515 384.192 56.3938ZM364.992 68.666C368.159 68.666 370.831 67.5443 373.009 65.301C375.252 62.9918 376.374 60.0887 376.374 56.5918C376.374 53.0948 375.252 50.1918 373.009 47.8825C370.831 45.5732 368.192 44.4186 365.091 44.4186C361.99 44.4186 359.384 45.6062 357.273 47.9814C355.161 50.2907 354.106 53.1608 354.106 56.5918C354.106 60.0887 355.161 62.9918 357.273 65.301C359.384 67.5443 361.957 68.666 364.992 68.666ZM409.909 68.666C413.274 68.666 416.045 67.5443 418.222 65.301C420.465 63.0577 421.587 60.1546 421.587 56.5918C421.587 53.0289 420.465 50.1258 418.222 47.8825C416.045 45.6392 413.274 44.5175 409.909 44.5175C406.544 44.5175 403.773 45.6392 401.595 47.8825C399.418 50.1258 398.329 53.0289 398.329 56.5918C398.329 60.1546 399.418 63.0247 401.595 65.2021C403.773 67.5113 406.544 68.666 409.909 68.666ZM409.909 75.5938C404.366 75.5938 399.748 73.7794 396.053 70.1505C392.358 66.4557 390.511 61.9361 390.511 56.5918C390.511 51.2474 392.358 46.7608 396.053 43.132C399.748 39.4371 404.366 37.5897 409.909 37.5897C415.451 37.5897 420.07 39.4371 423.764 43.132C427.459 46.7608 429.307 51.2474 429.307 56.5918C429.307 61.7381 427.459 66.2247 423.764 70.0515C420.07 73.7464 415.451 75.5938 409.909 75.5938ZM455.002 68.666C458.367 68.666 461.139 67.5443 463.316 65.301C465.559 63.0577 466.681 60.1546 466.681 56.5918C466.681 53.0289 465.559 50.1258 463.316 47.8825C461.139 45.6392 458.367 44.5175 455.002 44.5175C451.638 44.5175 448.866 45.6392 446.689 47.8825C444.512 50.1258 443.423 53.0289 443.423 56.5918C443.423 60.1546 444.512 63.0247 446.689 65.2021C448.866 67.5113 451.638 68.666 455.002 68.666ZM455.002 75.5938C449.46 75.5938 444.842 73.7794 441.147 70.1505C437.452 66.4557 435.605 61.9361 435.605 56.5918C435.605 51.2474 437.452 46.7608 441.147 43.132C444.842 39.4371 449.46 37.5897 455.002 37.5897C460.545 37.5897 465.163 39.4371 468.858 43.132C472.553 46.7608 474.4 51.2474 474.4 56.5918C474.4 61.7381 472.553 66.2247 468.858 70.0515C465.163 73.7464 460.545 75.5938 455.002 75.5938ZM490.892 75H483.172V23.635H490.892V75Z" fill="#565656"/>
<ellipse cx="69.5" cy="73" rx="69.5" ry="26" fill="#6366F1" fill-opacity="0.61"/>
<ellipse cx="69.5" cy="64" rx="69.5" ry="26" fill="#6366F1" fill-opacity="0.79"/>
<ellipse cx="69.5" cy="51" rx="69.5" ry="26" fill="#6366F1"/>
<ellipse cx="69.5" cy="48.5" rx="63.5" ry="21.5" fill="#8BD5FF"/>
</svg>
